<svg width="753" height="754" viewBox="0 0 753 754" fill="none" xmlns="http://www.w3.org/2000/svg">
<path d="M458.3 668.8L455.3 667.3L451.7 668.8L450 667.3L453.8 663.5L454.1 661.1L458.3 655.7L457.9 653.6L447.1 652.4L440.7 646.2L431.6 637.2L421 631.1L417.2 629.9L393.2 626.3L388.3 626.6L378.4 633.1L372.8 636L357.9 648L356.3 652.1L353 652.4L340.7 666.7L340 669.4L329.7 681.9L324.6 688.5L330.9 689.8L334.5 685.2L341.5 688.9L344.7 691.3L351.4 699.5V703.3L353.4 704.4L357.9 700.4L358.7 699.5L367.7 708.9L375.1 711.8L380 718.5L387.4 721.7L394.4 731.9L397.6 734.3L396.4 736.9L393.6 740.2L392.7 745.4L394.7 752.5L397.3 751.9L407.5 741L412 730.3L419 721.2L430 712.7L443.6 697.2L451.3 681.1L458.3 668.8Z" fill="#DCDCDC" stroke="#999999" stroke-miterlimit="10"/>
<path d="M503.2 201.9L510.3 208.8L511.2 227.6L508.2 235.5L505.3 238.4L509.4 240.7L510.3 244.9L518.5 255.1L525 253.5L528.4 255.6V261.2L522.2 264.1L517.6 274.3L522.2 281.4L526.7 285.8L525.5 287.9L529.6 296.9L538.1 299.3L541.1 285.5L538.7 275.6L545.1 260.1L550 248.1L565.2 242.5L575.5 233.7L582.8 231.3L589 235.1L598 232.2L599.6 223.5L595.9 219L595.4 212.1L601.2 205.6L602.1 201.9L599.2 194.9L600.7 189.6L597.5 186.3L600.1 180.5L606.2 170.3L609.8 169.9L617.1 165L620 159.4L619.1 157.6L614.8 158.8L608.2 155.6L590.2 148.6L588.1 151.4L580.7 152.7L576.7 156.4L572.9 157.3L566.8 163.7L565.6 162.9L567.3 159.4L566.8 158L564.7 156.8L566.5 151.1L569.7 146.6L568.5 145L564.7 145.3L567.3 142.1L567.6 138.9L562.7 133.4L556.2 131.4L554.2 133.9H552.4L551.6 129.8L551 128.1L549.2 128.6L546.3 127.3L541.4 125.7L537.3 124.5L535.7 130.6V138L532 143.6L531.6 147.7L527.8 152.7V158.8L522.9 164.1L519.3 171.7L508.2 188L501.8 189.6L492.3 198.7L498.4 201.9H503.2Z" fill="#DCDCDC" stroke="#999999" stroke-miterlimit="10"/>
<path d="M542 300.5L544.8 301.3L554.2 312.1L559.8 311.6L565.2 308L572.9 306.8L580.3 296.9V285.5L584.4 283.4L589.8 285H593.9L598.7 288.4L603.6 287.5L608.6 283.7L616.5 282.9L620.9 276.7L625.3 275.2L628.5 272.4L634.4 267.4L638.4 265.8L642.6 256.8L640.5 251L641.8 247.3L645.5 237.5L638.9 228.4L634.4 207.6L632.8 196.2L631.9 192.1L634.4 185.4L629.4 171.7L630.8 169.6L629 167L630.8 161.8L626.1 160.5L620 159.4L617.1 165L609.8 169.9L606.2 170.3L600.1 180.5L597.5 186.3L600.7 189.6L599.2 194.9L602.1 201.9L601.2 205.6L595.4 212.1L595.9 219L599.6 223.5L598 232.2L589 235.1L582.8 231.3L575.5 233.7L565.2 242.5L550 248.1L545.1 260.1L538.7 275.6L541.1 285.5L538.1 299.3L542 300.5Z" fill="#DCDCDC" stroke="#999999" stroke-miterlimit="10"/>
<path d="M542 300.5L529.9 311.2L530.4 313.3L526.4 318.2L527.5 321.8L534 325.9L532 328.8L533.1 331.7L529.9 335.8L529.6 341.1L533.7 343.7L531.6 349.3L533.7 352.2L532.8 353.4L534 359.5L530.7 362.8L529.6 368.3L535.2 378L536 385.3L533.7 390.8L533.1 396.1L542.7 392.8L564.4 379.2L573.7 379.7L575.5 381.2L574.1 384.9L578.7 388.7H583.6L586.4 387L593 389.1L604.9 397.6L613.8 398.5L620 404.6L621.8 408.7L623.8 410.4L634.9 411.3L645.1 416.5L647.9 419.4L646.3 423.6L641.3 427.6L638.9 432.4L634.4 435.3L632.8 440.2V443.5L638.1 449.6L637.6 453.8L647.9 461.6L657.8 452.5L657.4 441.5L665.6 417.7L664.3 412.4L663.9 392L666.3 383.3L665.1 378L667.2 372.3L665.9 368.3L670.9 362.1L671.2 358L673.8 352.5L675 353.1L677.1 358.4L680 358L692.9 342.3L697.9 330.9L692.9 331.7L689.3 328.8L684.4 316.5L690.9 315.7L693.4 304.8L691.3 301.3L689.3 294.9L689.7 291.6L686.8 286.6L681.4 279.3L678.6 280.5L676.2 277.3L669.1 275.2L664.3 271.1L653.3 279.7L649.9 281.7L648.3 281.4L645.5 284.6L644.3 287L641 287.9L638.1 287.5L637.6 284.2L634.4 280.5L634.1 278.1L632.8 274.8L628.5 272.4L625.3 275.2L620.9 276.7L616.5 282.9L608.6 283.7L603.6 287.5L598.7 288.4L593.9 285H589.8L584.4 283.4L580.3 285.5V296.9L572.9 306.8L565.2 308L559.8 311.6L554.2 312.1L544.8 301.3L542 300.5Z" fill="#DCDCDC" stroke="#999999" stroke-miterlimit="10"/>
<path d="M697.9 330.9L704 323.2L715.4 315.4L718.7 312.2L710.7 304.2L689.7 291.6L689.3 294.9L691.3 301.3L693.4 304.8L690.9 315.7L684.4 316.5L689.3 328.8L692.9 331.7L697.9 330.9Z" fill="#DCDCDC" stroke="#999999" stroke-miterlimit="10"/>
<path d="M742.9 283.7L727.4 282.9L721.2 287.9L707.8 289L704.5 286.6L695 280.5L686.8 286.6L689.7 291.6L710.7 304.2L718.7 312.2L740 291.6L742.9 283.7Z" fill="#DCDCDC" stroke="#999999" stroke-miterlimit="10"/>
<path d="M678.2 254.2L671.7 258.3L662.7 249.4L641.8 247.3L640.5 251L642.6 256.8L638.4 265.8L634.4 267.4L628.5 272.4L632.8 274.8L634.1 278.1L634.4 280.5L637.6 284.2L638.1 287.5L641 287.9L644.3 287L645.5 284.6L648.3 281.4L649.9 281.7L653.3 279.7L664.3 271.1L669.1 275.2L676.2 277.3L678.6 280.5L681.4 279.3L686.8 286.6L695 280.5L704.5 286.6L707.8 289L721.2 287.9L727.4 282.9L742.9 283.7L749.5 269.4L749.9 259.7L751.6 250.6L742 253.5L736.7 258.3L718.8 262.9L713.9 268.2H709.3L708.6 265.8L704.9 261.2L711.9 251.5L710.2 249.8L705.2 248.1L694.2 255.9L687.3 258.8L684.4 256.3L680.6 256.8L678.2 254.2Z" fill="#DCDCDC" stroke="#999999" stroke-miterlimit="10"/>
<path d="M748.4 236L739.3 235.5H730.3L723.6 231.3L720.9 233.4L718.8 241.9L716.3 242.8L713.9 239.6L707.3 239.2L703.1 237.2V234.2L707.3 227.3V224.9L706 224.4L696.3 227.6L690.9 232.6L681.9 230.7L678.2 241.9L681.9 248.6L678.2 254.2L680.6 256.8L684.4 256.3L687.3 258.8L694.2 255.9L705.2 248.1L710.2 249.8L711.9 251.5L704.9 261.2L708.6 265.8L709.3 268.2H713.9L718.8 262.9L736.7 258.3L742 253.5L751.6 250.6L748.4 236Z" fill="#DCDCDC" stroke="#999999" stroke-miterlimit="10"/>
<path d="M705.2 200.2L701.9 198.2L692.9 188L667.2 167.5L650.4 160L630.8 161.8L629 167L630.8 169.6L629.4 171.7L634.4 185.4L631.9 192.1L632.8 196.2L634.4 207.6L638.9 228.4L645.5 237.5L641.8 247.3L662.7 249.4L671.7 258.3L678.2 254.2L681.9 248.6L678.2 241.9L681.9 230.7L684 224.4H687.3L696.3 209.7L705.2 200.3V200.2Z" fill="#DCDCDC" stroke="#999999" stroke-miterlimit="10"/>
<path d="M681.9 230.7L684 224.4H687.3L696.3 209.7L705.2 200.3V200.2L713.9 205.6L724.1 209.1L738.5 209.7L743.8 215L748.4 236L739.3 235.5H730.3L723.6 231.3L720.9 233.4L718.8 241.9L716.3 242.8L713.9 239.6L707.3 239.2L703.1 237.2V234.2L707.3 227.3V224.9L706 224.4L696.3 227.6L690.9 232.6L681.9 230.7Z" fill="#DCDCDC" stroke="#999999" stroke-miterlimit="10"/>
<path d="M489.5 590.1L487.7 588.5V587.7L484.8 584.8L481.3 586.9L480.4 579.6L469.7 578.6L468.1 575.8L469.7 573L464.4 564.4L463.2 553.2L455.9 545.1H446.5L434.2 538.9L423.9 538.5H417.2L407.9 538.2L404.1 535.7L411.6 530.4L419.3 520.1V517.2L423.4 512.8L426.3 504.9L432.4 495.5L439.8 490.2L439.9 488.4L448 484.1L457 487L469 486.5L470.5 489.4V492.3L477.5 493.9L481.6 491.5L492.7 492.3L498.4 488.6L505.9 491.1L508.2 494.4L507 497.3L509.9 502.5L507.9 505.8L511.2 515.2L514.1 517.2L518.8 517.7L519.7 521L516.5 532.1L518.1 535.3L522.9 540.3L522.2 543L524.6 545.5L532.5 544.7L534.9 540.9L545.1 539.8L551.3 537.7L554.5 541.5H561.1L561.8 542.3L557.7 546.5L550 548.4L548.9 552.6L549.2 556.2L537.3 562.8L535.7 565.2L528.8 564.4L514.1 571L492.7 587.4L489.5 590.1Z" fill="#DCDCDC" stroke="#999999" stroke-miterlimit="10"/>
<path d="M439.9 488.4L440.7 476.3L446.8 471L452.6 462.4L467.6 459.5L470.5 461.1L475.8 456.7L489.8 457.5L498.9 458.4L508.2 450.9L508.6 441.5L505.3 439.9L505 438.3L511.2 428.8L509.1 423L507 421L508.6 411.3L517.3 408.4V403.4L516.8 399L518.1 392.8L523.4 391.5L523.8 387H526.7L529.1 390.8H533.7L533.1 396.1L542.7 392.8L564.4 379.2L573.7 379.7L575.5 381.2L574.1 384.9L578.7 388.7H583.6L586.4 387L593 389.1L604.9 397.6L613.8 398.5L620 404.6L621.8 408.7L623.8 410.4L634.9 411.3L645.1 416.5L647.9 419.4L646.3 423.6L641.3 427.6L638.9 432.4L634.4 435.3L632.8 440.2V443.5L638.1 449.6L637.6 453.8H631.4L624.2 457L622.1 461.1L623.3 466.9L623.8 469.8L622.1 473L623.3 480.3L622.1 484.5L615.6 494.4L613.8 497.3L609 496.8L605.7 500L604.9 507.8L600.4 511.6L595.1 525.9L579.6 532.1L566.5 531.2L551.3 537.7L545.1 539.8L534.9 540.9L532.5 544.7L524.6 545.5L522.2 543L522.9 540.3L518.1 535.3L516.5 532.1L519.7 521L518.8 517.7L514.1 517.2L511.2 515.2L507.9 505.8L509.9 502.5L507 497.3L508.2 494.4L505.9 491.1L498.4 488.6L492.7 492.3L481.6 491.5L477.5 493.9L470.5 492.3V489.4L469 486.5L457 487L448 484.1L439.9 488.4Z" fill="#DCDCDC" stroke="#999999" stroke-miterlimit="10"/>
<path d="M551.3 537.7L554.5 541.5H561.1L561.8 542.3L557.7 546.5L550 548.4L548.9 552.6L549.2 556.2H552.1L552.9 555L551 552.1L551.6 550.8L556.2 548.8L559.8 550.8L565.9 548.8L571.8 551.2L575.5 550L575.8 547.1L577.9 546.5L580.7 550.5L584.4 550.8L599.6 549.2L601.2 542.7L618 534.5V526.6L621.3 518.1H621.2L607.4 514.3L606.2 509.1L604.9 507.8L600.4 511.6L595.1 525.9L579.6 532.1L566.5 531.2L551.3 537.7Z" fill="#DCDCDC" stroke="#999999" stroke-miterlimit="10"/>
<path d="M637.6 453.8H631.4L624.2 457L622.1 461.1L623.3 466.9L623.8 469.8L622.1 473L623.3 480.3L622.1 484.5L615.6 494.4L613.8 497.3L609 496.8L605.7 500L604.9 507.8L606.2 509.1L607.4 514.3L621.2 518.1H621.3L622.1 516.1L631.4 506.7L632.8 501.7L643.4 488.2L645.5 476.3L647.9 461.6L637.6 453.8Z" fill="#DCDCDC" stroke="#999999" stroke-miterlimit="10"/>
<path d="M531.6 349.3L533.7 352.2L532.8 353.4L534 359.5L530.7 362.8L529.6 368.3L535.2 378L536 385.3L533.7 390.8H529.1L526.7 387H523.8L523.4 391.5L518.1 392.8L516.8 399L517.3 403.4V408.4L508.6 411.3L507 421L509.1 423L511.2 428.8L505 438.3L505.3 439.9L508.6 441.5L508.2 450.9L498.9 458.4L489.8 457.5L475.8 456.7L470.5 461.1L467.6 459.5L452.6 462.4L446.8 471L440.7 476.3L435.7 473L422.5 467.7L409.1 461.6H404.9L403.8 460.4L406.2 456.7L404.1 454.9H400.9L400 448.5L399.7 436.5L402.1 427.1L410.8 417.7L417.7 407.5L423.1 405.8L430.8 391.5L433.7 389.9L435.7 390.8L441 381.2L445.1 360.8L450 351.3L459.4 337.1L467.1 337.6L473 350.4L476.5 344.9L484.6 347L486.7 352.1L492.3 348.7L502.1 350.4L501.7 346.6H504.2L508 351.7L523.9 353.4L526.4 348.7L531.6 349.3Z" fill="#DCDCDC" stroke="#999999" stroke-miterlimit="10"/>
<path d="M404.1 535.7L411.6 530.4L419.3 520.1V517.2L423.4 512.8L426.3 504.9L432.4 495.5L439.8 490.2L439.9 488.4L440.7 476.3L435.7 473L422.5 467.7L409.1 461.6H404.9L403.8 460.4L406.2 456.7L404.1 454.9H400.9L400 448.5L393.6 444.4L389.4 435.3L385.6 434.9L383.7 438.3H380.9L373.1 437L367.7 440.6L345.3 432.9L342 434.5L335 435.9L330.1 441.5L321.5 447.6L318.6 452.9L311.9 480L310.1 486.5L309.2 489.8L310.8 500L314.5 506.2L313.7 530.7L315.7 532.1L318.6 530.7L328 533.3L336.2 533.6L341.2 530.4L346.4 534.2L351.7 534.5L355.8 545.9L357 556.2L359.1 563.1L360.5 566.1L364.5 567.6L373.9 563.5L379.5 566.9L383.3 564.4L385.7 554.6L390.7 549.7L391.5 544.7L404.1 535.7Z" fill="#0093FF" stroke="#999999" stroke-miterlimit="10"/>
<path d="M508.6 411.3L492.7 410.8L491.5 409.2L493 402.2L498 401L508.6 401.4V411.3Z" fill="#DCDCDC" stroke="#999999" stroke-miterlimit="10"/>
<path d="M531.6 349.3L526.4 348.7L523.9 353.4L508 351.7L504.2 346.6H501.7L502.1 350.4L492.3 348.7L486.7 352.1L484.6 347L476.5 344.9L473 350.4L467.1 337.6L459.4 337.1L450 351.3L447.1 341.6V316.2L455.3 290.4L464.4 275.2L472.5 264.4L476.3 250.6L474.3 245.4L477.2 236.6V233.7L484 229.7L492.7 219.9L496.2 207.2L493 204.8L487.4 203.5L492.3 198.7L498.4 201.9H503.2L510.3 208.8L511.2 227.6L508.2 235.5L505.3 238.4L509.4 240.7L510.3 244.9L518.5 255.1L525 253.5L528.4 255.6V261.2L522.2 264.1L517.6 274.3L522.2 281.4L526.7 285.8L525.5 287.9L529.6 296.9L538.1 299.3L542 300.5L529.9 311.2L530.4 313.3L526.4 318.2L527.5 321.8L534 325.9L532 328.8L533.1 331.7L529.9 335.8L529.6 341.1L533.7 343.7L531.6 349.3Z" fill="#DCDCDC" stroke="#999999" stroke-miterlimit="10"/>
<path d="M243.2 273.2L299.6 270.3L301.4 261.2V254.2L301.7 250.2L305.6 242.5L314.5 258.8L314.9 268.2L323.9 276.4L326 279.3L329.7 280.9L331.7 282.9L455.3 290.4L447.1 316.2V341.6L450 351.3L445.1 360.8L441 381.2L435.7 390.8L433.7 389.9L430.8 391.5L423.1 405.8L417.7 407.5L410.8 417.7L402.1 427.1L399.7 436.5L400 448.5L393.6 444.4L389.4 435.3L385.6 434.9L383.7 438.3H380.9L373.1 437L367.7 440.6L345.3 432.9L342 434.5L335 435.9L330.1 441.5L321.5 447.6L318.6 452.9L313.3 442L304.3 437.8L301.4 429.2L303.1 424.2L303.4 418.6L271.5 418.9L268.9 417.4L268.3 404.2L262.2 397.2L264.9 394.3L264.2 390.8L265.7 385.3L262.5 379.7L264.6 375L256.3 368.6L259.5 365.4L264.2 359.5L268.6 352.2L271.5 346.4L272.7 337.6L268.6 329.3L269.8 325.6L271 319.4L267.4 316.5L251 315L242 305.9L240.3 301.8L243.7 291.9L242 279.7L243.2 273.2Z" fill="#DCDCDC" stroke="#999999" stroke-miterlimit="10"/>
<path d="M243.2 273.2L242 279.7L243.7 291.9L240.3 301.8L242 305.9L251 315L267.4 316.5L271 319.4L269.8 325.6L268.6 329.3L272.7 337.6L271.5 346.4L268.6 352.2L264.2 359.5L259.5 365.4L256.3 368.6L250.2 366.2L237.1 367.4L230.1 359.5L223.5 358.7L215.4 354.2L212.5 351H210.1L208 351.3L202.7 347.8L192.8 348.9L188.4 348.1L184.7 341.9L180.2 340.8L173.2 335.5L167.9 322.7L169.1 319.1L166.2 311.2L168.6 303.1L167.4 296L165.4 294.9L162.1 298.1H149.5L146.3 299.9L139.2 296.8L150.2 287.9L155.6 287.5L161.2 289.5L169.5 286.3H173.2L178.5 279.3L189.9 276.1L193.7 272.7L192.5 266.2L197.3 262.5L199.8 261.2L200.7 258.3H215.7L225.6 267.9L243.2 273.2Z" fill="#DCDCDC" stroke="#999999" stroke-miterlimit="10"/>
<path d="M139.2 296.8L121.5 289L67.5 267.1L24.5 259.2L6.3 251.8L6.1 258L2.8 259.7L2 263.3L7.6 267.4L6.1 269.4L10.2 274.8L15.5 281.7L21.2 287.5L22.8 292.5L19.6 296.9L20.4 297.8L35.4 298.6L41.3 308.3L52.4 308L67.1 296L69.1 299.3L67.9 303.9L69.9 325.6L74.1 327.2L80.2 324.4L89.6 323.5L102.4 323.9L104.8 325.9L112.1 322.7L116.7 316.5L122.8 316.2L124.9 313.3L135.1 306.3L146.3 299.9L139.2 296.8Z" fill="#DCDCDC" stroke="#999999" stroke-miterlimit="10"/>
<path d="M132.3 83.6001L129.4 84.3001L123.2 68.3001L121.5 66.3001L112.6 74.0001L107.7 70.4001H105.6L104.4 73.3001L105.1 74.0001L100.3 75.7001L75.6999 76.6001L75.1999 87.6001L79.7999 88.9001L85.4999 89.7001L87.4999 94.2001L86.2999 96.6001L80.1999 95.3001L71.6999 99.1001L71.9999 113.4L80.4999 120.7V126.6L84.2999 132.2L77.7999 185.9L74.8999 191.6L73.1999 194.5L68.2999 191.2L59.3999 192.1L56.7999 196.2L39.1999 200.6L20.7999 214.1L20.3999 221.1L15.8999 230.5L16.6999 240.4L6.49993 248.1L6.29993 251.8L24.4999 259.2L67.4999 267.1L121.5 289L139.2 296.8L150.2 287.9L155.6 287.5L161.2 289.5L169.5 286.3H173.2L178.5 279.3L189.9 276.1L193.7 272.7L192.5 266.2L197.3 262.5L199.8 261.2L200.7 258.3H215.7L225.6 267.9L243.2 273.2L299.6 270.3L301.4 261.2V254.2L301.7 250.2L305.6 242.5L300.2 232.6L314.5 198.2L336.2 143.6L331.2 139.6L321.5 133H316.9L304.3 131.4L291.1 111.7L289.2 94.8001L271.8 95.8001L266.2 99.1001L265.4 103.2L260.8 106.8L259.5 113.7L253.9 117L247.8 112.6L244 110.8L237.6 114.6L235 125.7L232.1 127.8L217.1 115.5L217.8 114.6L219.5 113.4L220.3 108.1L217.4 83.9001L207.2 64.6001L200.7 58.1001L199.8 61.4001L187.6 68.7001L187.1 72.5001L182.9 78.1001L180.2 76.0001L175.3 80.1001L167.1 83.6001L166.2 85.9001L159.2 93.3001L157.2 92.4001L157.7 87.1001L155.9 86.8001L150.7 90.0001L145.4 92.1001L132.3 83.6001Z" fill="#DCDCDC" stroke="#999999" stroke-miterlimit="10"/>
<path d="M254.2 3.2L262.5 2L265.7 6.09999L264.9 14.3L268.3 16.7L270.7 17.5L273.1 24.8L274.5 28.6L268.3 35.1L268.6 41.8L266.5 52L266.9 55.5L271 58.1L271.5 65.8L283.3 75.3L287.4 78.1L289.2 94.8L271.8 95.8L266.2 99.1L265.4 103.2L260.8 106.8L259.5 113.7L253.9 117L247.8 112.6L244 110.8L237.6 114.6L235 125.7L232.1 127.8L217.1 115.5L217.8 114.6L219.5 113.4L220.3 108.1L217.4 83.9L207.2 64.6L200.7 58.1L188.7 56.9L187.1 52L185 45L182.9 40.9L183.4 36.5L174 26.6L173.2 24.8L175.6 24.2L177.3 25.3H184.3L187.6 29.5L197 29.8L199.8 27.7L209.2 34.7L212.1 32.7L211.6 27.4L217.8 24.5L219.8 22.4L225.9 24.2L233.4 22.1L236.7 19.2L242 16.3L244.4 16.7L255.1 6.89999L254.2 3.2Z" fill="#DCDCDC" stroke="#999999" stroke-miterlimit="10"/>
<path d="M373.9 55.5001L369 55.2001V60.5001L370.2 63.8L375.5 64.6001L382.4 69.6001L392.3 72.8L394.4 77.4001L400.6 84.8L400 88.9001L403.5 101.2L408.3 103.5L409.9 106.8L414.9 118.3L425.2 121.6L428.7 118.8L430.8 112.9L432.4 110.5L437.7 106L437.4 101.5L448 95.8L453.8 88.0001L462.9 78.6001L463.2 73.3L460.8 68.3L451.7 64.3L448.9 61.4001L447.6 57.6001L445.1 52.0001L437.7 22.1001L431.3 16.3L429.2 20.4001L427.5 24.5001L421.9 31.8L410.8 52.8L405.9 57.6001L400.6 59.0001L396.8 56.1001L392.3 56.9001L388.3 55.5001L384.5 57.6001L378.4 59.0001L373.9 55.5001Z" fill="#DCDCDC" stroke="#999999" stroke-miterlimit="10"/>
<path d="M480.1 606L474.3 605L462.9 608.5L459.1 606.1L454.1 604.5L448.9 605.8L444.7 605L440.7 609L433.7 609.9L432.1 612.3V615.5L429.2 617.3L417.7 614.4L409.7 611.5L397.4 609.9L390.5 609.4L387 600L383.3 598L377.1 598.3L375.1 597.1L377.5 584.5L380 575.8L379.5 573V566.9L383.3 564.4L385.7 554.6L390.7 549.7L391.5 544.7L404.1 535.7L407.9 538.2L417.2 538.5H423.9L434.2 538.9L446.5 545.1H455.9L463.2 553.2L464.4 564.4L469.7 573L468.1 575.8L469.7 578.6L480.4 579.6L481.3 586.9L484.8 584.8L487.7 587.7V588.5L489.5 590.1L486.9 593.5L482 593.8L478.7 595.1L477.8 595.9L482 599.1L480 606H480.1Z" fill="#DCDCDC" stroke="#999999" stroke-miterlimit="10"/>
<path d="M388.3 626.6L390.3 620.2L390.5 609.4L397.4 609.9L409.7 611.5L417.7 614.4L429.2 617.3L432.1 615.5V612.3L433.7 609.9L440.7 609L444.7 605L448.9 605.8L454.1 604.5L459.1 606.1L462.9 608.5L474.3 605L480.1 606H480L479.2 608.5L476.3 612L477.8 616.8V624.3V632.5L476.3 638.6L475.5 651.5L473 654.5V656.6L458.3 668.8L455.3 667.3L451.7 668.8L450 667.3L453.8 663.5L454.1 661.1L458.3 655.7L457.9 653.6L447.1 652.4L440.7 646.2L431.6 637.2L421 631.1L417.2 629.9L393.2 626.3L388.3 626.6Z" fill="#DCDCDC" stroke="#999999" stroke-miterlimit="10"/>
<path d="M533.8 120.3L528.5 121L524.4 117.4L514.8 113.6L511.6 114.9L507.5 113.3L498.5 117.4L491.6 126.8L491.9 129.2L491.1 130.6L487.5 129.8L476.8 138.3L469.7 152.4L467.7 154.4L467.3 151.2L471.8 143.4L472.6 138.4L471.1 136.8L465 139.6L463.2 138L460.3 135.9L455 138H450.9L448.9 136.8L445.1 140.4L442.3 139.6L440.9 136L445.9 135.5L446.6 132.3L447.7 131.9L450.9 134.8L457 132.7L459.9 134.8L466.4 134.3L471.7 130.1L473.8 131L476.3 129.8L482.5 129.3L484 127.3L483.7 125.2L487.8 121.1L493.7 107.3L479.3 104.4L471.5 106.1L454.7 102.7L449.8 106.1V110.6L447.2 112.3L446.9 120.5L449.3 121.6L444.8 123.7L444.4 120L441.5 119.7L434.2 125.3L418.5 133.4L419.3 144.2L416.1 140.1V131.9L407.9 130.7L421 126.1L425.2 121.6L414.8 118.4L409.8 106.8L408.2 103.6L403.4 101.2L400 88.9001L400.5 84.8L394.4 77.4001L392.3 72.8L382.4 69.6001L375.4 64.6001L370.1 63.8L368.9 60.6001V55.3L363.6 50.8L350.5 53.6001H345.2L341.5 58.2001L345.6 62.3L346.1 64.4001L341.5 65.6001L330 63.2001L327.1 65.3L318.9 63.5001L312.4 68.8H307.1L302.2 72.0001L298.5 71.7001L292 77.5001L287.3 78.2001L289.2 94.8L291.1 111.7L304.7 131L317.3 132.7H321.9L331.7 139.2L336.6 143.4L314.9 198L300.5 232.3L305.9 242.2L314.8 258.7L315.2 268.1L324.1 276.2L326.2 279.1L329.9 280.7L332 282.8L455.5 290.3L464.6 275.1L472.8 264.4L476.5 250.6L474.4 245.3L477.3 236.6V233.7L484.2 229.6L492.9 219.9L496.5 207.1L493.3 204.7L487.7 203.5L492.5 198.7L501.9 189.5L508.4 187.9L519.5 171.5L523.1 164L528 158.7V152.6L531.8 147.6L532.1 143.5L535.9 137.9V130.6L537.4 124.5L533.8 120.3Z" fill="#DCDCDC" stroke="#999999" stroke-miterlimit="10"/>
<path d="M388.3 626.6L390.3 620.2L390.5 609.4L397.4 609.9L409.7 611.5L417.7 614.4L429.2 617.3L432.1 615.5V612.3L433.7 609.9L440.7 609L444.7 605L448.9 605.8L454.1 604.5L459.1 606.1L462.9 608.5L474.3 605L480.1 606H480L479.2 608.5L476.3 612L477.8 616.8V624.3V632.5L476.3 638.6L475.5 651.5L473 654.5V656.6L458.3 668.8L455.3 667.3L451.7 668.8L450 667.3L453.8 663.5L454.1 661.1L458.3 655.7L457.9 653.6L447.1 652.4L440.7 646.2L431.6 637.2L421 631.1L417.2 629.9L393.2 626.3L388.3 626.6Z" fill="#DCDCDC" stroke="#999999" stroke-miterlimit="10"/>
</svg>
